<svg width="35" height="35" viewBox="0 0 35 35" fill="none" xmlns="http://www.w3.org/2000/svg">
<path d="M0.546875 6.01562V29.5312C0.546875 31.4945 1.99609 32.8125 4.15625 32.8125H30.0781C30.3789 32.8125 30.625 32.5664 30.625 32.2656V19.1406H29.5312V31.7188H4.15625C2.94219 31.7188 1.64062 31.1445 1.64062 29.5312C1.64062 27.918 3.05156 27.3438 4.375 27.3438H4.92188C5.22266 27.3438 5.46875 27.0977 5.46875 26.7969V6.5625H29.5312V10.3906H30.625V6.01562C30.625 5.71484 30.3789 5.46875 30.0781 5.46875H5.46875V2.1875C5.46875 1.88672 5.22266 1.64062 4.92188 1.64062H4.375C2.15469 1.64062 0.546875 3.47813 0.546875 6.01562ZM4.375 2.73438V26.25C3.25391 26.25 2.30781 26.5672 1.64062 27.1195V6.01562C1.64062 4.08516 2.76719 2.73438 4.375 2.73438Z" fill="#111082"/>
<path d="M33.9719 10.8717C33.3539 10.2537 32.2711 10.2537 31.6531 10.8717L21.2133 21.3115C21.175 21.3498 21.1477 21.3881 21.1203 21.4318L19.3648 24.6092H10.1172C8.76094 24.6092 7.65625 25.7139 7.65625 27.0701C7.65625 28.4264 8.76094 29.5311 10.1172 29.5311H14.2188V28.4373H10.1172C9.3625 28.4373 8.75 27.8248 8.75 27.0701C8.75 26.3154 9.3625 25.7029 10.1172 25.7029H19.6875C19.7805 25.7029 19.868 25.6811 19.95 25.6373L23.4062 23.7287C23.45 23.7068 23.4938 23.674 23.5266 23.6357L33.9664 13.1959C34.6063 12.5561 34.6063 11.517 33.9664 10.8771L33.9719 10.8717ZM22.8102 22.8045L21.082 23.7615L22.0391 22.0334L30.1055 13.967L30.8766 14.7381L22.8102 22.8045ZM33.1953 12.4193L31.6477 13.967L30.8766 13.1959L32.4242 11.6482C32.632 11.4404 32.993 11.4404 33.1953 11.6482C33.4086 11.8615 33.4086 12.2061 33.1953 12.4193Z" fill="#111082"/>
<path d="M15.3125 15.8594V21.3281C15.3125 21.6289 15.5586 21.875 15.8594 21.875H18.5938C18.8945 21.875 19.1406 21.6289 19.1406 21.3281V18.5938H21.3281C21.6289 18.5938 21.875 18.3477 21.875 18.0469V15.8594C21.875 15.5586 21.6289 15.3125 21.3281 15.3125H15.8594C15.5586 15.3125 15.3125 15.5586 15.3125 15.8594ZM16.4062 16.4062H20.7812V17.5H18.5938C18.293 17.5 18.0469 17.7461 18.0469 18.0469V20.7812H16.4062V16.4062Z" fill="#111082"/>
<path d="M24.6094 13.125C24.9102 13.125 25.1562 12.8789 25.1562 12.5781V8.20312C25.1562 7.90234 24.9102 7.65625 24.6094 7.65625H19.1406C18.8398 7.65625 18.5938 7.90234 18.5938 8.20312V12.5781C18.5938 12.8789 18.8398 13.125 19.1406 13.125H24.6094ZM19.6875 8.75H24.0625V12.0312H19.6875V8.75Z" fill="#111082"/>
<path d="M16.4062 7.65625H7.65625C7.35547 7.65625 7.10938 7.90234 7.10938 8.20312V15.8594C7.10938 16.1602 7.35547 16.4062 7.65625 16.4062H13.6719C13.9727 16.4062 14.2188 16.1602 14.2188 15.8594V14.2188H16.4062C16.707 14.2188 16.9531 13.9727 16.9531 13.6719V8.20312C16.9531 7.90234 16.707 7.65625 16.4062 7.65625ZM15.8594 13.125H13.6719C13.3711 13.125 13.125 13.3711 13.125 13.6719V15.3125H8.20312V8.75H15.8594V13.125Z" fill="#111082"/>
<path d="M15.3125 28.4375H16.4062V29.5312H15.3125V28.4375Z" fill="#111082"/>
<path d="M7.10938 21.3281C7.10938 21.6289 7.35547 21.875 7.65625 21.875H13.6719C13.9727 21.875 14.2188 21.6289 14.2188 21.3281V18.5938C14.2188 18.293 13.9727 18.0469 13.6719 18.0469H7.65625C7.35547 18.0469 7.10938 18.293 7.10938 18.5938V21.3281ZM8.20312 19.1406H13.125V20.7812H8.20312V19.1406Z" fill="#111082"/>
<path d="M24.6094 24.6094C24.3086 24.6094 24.0625 24.8555 24.0625 25.1562V27.3438H21.875C21.5742 27.3438 21.3281 27.5898 21.3281 27.8906V30.0781C21.3281 30.3789 21.5742 30.625 21.875 30.625H27.3438C27.6445 30.625 27.8906 30.3789 27.8906 30.0781V25.1562C27.8906 24.8555 27.6445 24.6094 27.3438 24.6094H24.6094ZM26.7969 29.5312H22.4219V28.4375H24.6094C24.9102 28.4375 25.1562 28.1914 25.1562 27.8906V25.7031H26.7969V29.5312Z" fill="#111082"/>
</svg>
