<svg width="57" height="56" viewBox="0 0 57 56" fill="none" xmlns="http://www.w3.org/2000/svg">
<g clip-path="url(#clip0_736_2)">
<mask id="mask0_736_2" style="mask-type:luminance" maskUnits="userSpaceOnUse" x="0" y="0" width="57" height="56">
<path d="M57 0H0V56H57V0Z" fill="white"/>
</mask>
<g mask="url(#mask0_736_2)">
<path d="M28.5 0.0012207C12.7615 0.0012207 0 12.5364 0 28C0 43.4635 12.7603 55.9988 28.5 55.9988C44.241 55.9988 57 43.4635 57 28C57 12.5364 44.241 0.0012207 28.5 0.0012207ZM28.5 8.37317C31.0001 8.37302 33.3979 9.34859 35.1658 11.0853C36.9337 12.822 37.927 15.1775 37.9272 17.6338C37.9274 20.09 36.9343 22.4456 35.1667 24.1826C33.399 25.9195 31.0013 26.8954 28.5012 26.8955C26.0011 26.8957 23.6035 25.9201 21.8355 24.1835C20.0676 22.4467 19.0742 20.0912 19.0741 17.635C19.0738 15.1787 20.0669 12.8231 21.8346 11.0861C23.6023 9.34923 25.9999 8.37334 28.5 8.37317ZM28.4938 48.6783C23.4996 48.6838 18.6683 46.9336 14.8734 43.744C14.4318 43.3737 14.0771 42.9138 13.8337 42.396C13.5904 41.8781 13.4642 41.3146 13.4638 40.7443C13.4638 35.5578 17.7365 31.4068 23.0169 31.4068H33.9857C39.2673 31.4068 43.5236 35.5578 43.5236 40.7443C43.524 41.3144 43.3983 41.8779 43.1551 42.3956C42.9119 42.9134 42.5572 43.373 42.1153 43.7428C38.3206 46.9337 33.4886 48.6844 28.4938 48.6783Z" fill="#111082"/>
</g>
</g>
<defs>
<clipPath id="clip0_736_2">
<rect width="57" height="56" fill="white"/>
</clipPath>
</defs>
</svg>
